<?xml version="1.0" encoding="utf-8"?>
<svg version="1.1" xmlns="http://www.w3.org/2000/svg" xmlns:xlink="http://www.w3.org/1999/xlink" x="0px" y="0px"
	 viewBox="0 0 1066.4 1066.4" enable-background="new 0 0 1066.4 1066.4" xml:space="preserve">
<g>
	<path fill="#C6B96F" d="M855.3,743.5V323c0,0,0-111.8-111.8-111.8H323c0,0-111.8,0-111.8,111.8v420.5c0,0,0,111.8,111.8,111.8
		h420.5C743.5,855.3,855.3,855.3,855.3,743.5"/>
	<path fill="#AA8B49" d="M550.4,768.6c15.3-1.4,37.8-1,40.9-11.5c3-10.6,9.6-10.6,18.2-16.7c8.5-6.1,19.6-2.6,14-32.3
		c-5.5-29.7-36.8-60-14-94.8c22.7-34.8,61.7-83.2,73.2-99.9c11.5-16.7,20.6-21.2,5.5-43.9c-15.1-22.7-28.8-45.4-33.3-54.5
		c-4.5-9.1-10.2-24.2,6.1-25.8c16.2-1.5,20.4-1.4,20.4-27.9c0-26.6,5.4-35.6-15.8-32.6c-21.2,3-51.5,23.5-62.1,36.8
		c-10.6,13.2-16.7,19.2-22.7,17.7c-6-1.5-15.1-16.7-9-28.7c6.1-12.1,13.9-15.1,18.1-25.8c10.6-26.6-9.5-33.4-18.1-29.3
		c-8.7,4.1-12.8,11.1-12.8,11.1s-9.3,6.7-14.4,0c-5.1-6.7-0.6-13.6-11.2-13.1c-8.6,0.4-6.5,6.1-11,13.1c-4.5,7-14.5,0-14.5,0
		s-4.1-7-12.8-11.1c-8.7-4.1-28.8,2.8-18.2,29.3c4.3,10.7,12.1,13.6,18.2,25.8c6.1,12.1-3,27.2-9.1,28.7
		c-6.1,1.5-12.1-4.5-22.7-17.7c-10.6-13.2-40.9-33.7-62.1-36.8c-21.2-3-15.9,6.1-15.9,32.6c0,26.6,4.1,26.4,20.4,27.9
		c16.2,1.5,10.6,16.7,6,25.8c-4.5,9-18.1,31.8-33.3,54.5c-15.1,22.7-6.1,27.2,5.5,43.9c11.5,16.7,50.5,65.1,73.2,99.9
		c22.7,34.8-8.6,65.1-14,94.8c-5.5,29.7,5.5,26.3,14,32.3c8.5,6.1,15.1,6.1,18.1,16.7c3,10.6,25.6,10.2,40.9,11.5
		C531.3,769.9,550.4,768.6,550.4,768.6"/>
	<path fill="#C6B96F" d="M429,472.8c0,0,28.5-6.2,33.8,9.8c5.3,16,5.3,32.9,5.3,32.9S427.3,531.5,429,472.8"/>
	<path fill="#C6B96F" d="M643.6,472.8c0,0-28.5-6.2-33.8,9.8c-5.3,16-5.3,32.9-5.3,32.9S645.4,531.5,643.6,472.8"/>
	<path fill="#C6B96F" d="M559.9,483.5c8.9-43.6,24.1-30.3,23.2-45.4c-0.7-11.3-3.3-22.4-16.9-25c-14.3-2.7-2.2-17.6-25-24
		c-5-1.4-9.8,0-9.8,0c-22.3,8-10.7,21.3-24.9,24c-13.6,2.5-16.3,13.6-16.9,25c-0.9,15.1,14.3,1.8,23.1,45.4
		c4.2,20.7,23,149.4,23,149.4S555.7,504.2,559.9,483.5"/>
	<path fill="#C6B96F" d="M559.9,699.7c8.9,16.6,24.1,11.5,23.2,17.3c-0.7,4.3-3.3,8.5-16.9,9.5c-14.3,1-2.2,14.3-25,16.7
		c-5,0.6-9.8,0-9.8,0c-22.3-3-10.7-15.7-24.9-16.7c-13.6-1-16.3-5.2-16.9-9.5c-0.9-5.8,14.3-0.7,23.1-17.3c4.2-7.9,23-49.4,23-49.4
		S555.7,691.8,559.9,699.7"/>
</g>
</svg>