<?xml version="1.0" encoding="utf-8"?>
<svg version="1.1" xmlns="http://www.w3.org/2000/svg" xmlns:xlink="http://www.w3.org/1999/xlink" x="0px" y="0px"
	 viewBox="0 0 1066.4 1066.4" enable-background="new 0 0 1066.4 1066.4" xml:space="preserve">
<g>
	<path fill="#C6B96F" d="M855.3,743.5V323c0,0,0-111.8-111.8-111.8H323c0,0-111.8,0-111.8,111.8v420.5c0,0,0,111.8,111.8,111.8
		h420.5C743.5,855.3,855.3,855.3,855.3,743.5"/>
	<path fill="#AA8B49" d="M541.7,333.9h67.6v-41.5c0-12.9-25.8-19.3-51.5-19.3h-49.2c-25.8,0-51.5,6.4-51.5,19.3v41.5h67.6H541.7z
		 M642.3,403.5c0-14.5-8.8-24.9-24.9-24.9H556h-45.6h-61.4c-16.1,0-24.9,10.4-24.9,24.9c0,14.5,20.1,19.9,20.1,19.9v284.5
		c0,30.6,7.5,58.7,38.6,74.1c31.1,15.4,69.6,15.4,100.7,0c31.1-15.4,38.6-43.5,38.6-74.1V423.3C622.2,423.3,642.3,417.9,642.3,403.5
		"/>
</g>
</svg>