<?xml version="1.0" encoding="utf-8"?>
<svg class="box" version="1.1" xmlns="http://www.w3.org/2000/svg" xmlns:xlink="http://www.w3.org/1999/xlink" x="0px" y="0px"
	 viewBox="0 0 1066.4 1066.4" enable-background="new 0 0 1066.4 1066.4" xml:space="preserve">
<style>
.box {
 filter: drop-shadow(0 0 5px #3f90fc) drop-shadow(0 0 5px #3f90fc);
}
</style>
<path fill="#82c8e5" d="M469.9,442l20.3-44.4h86l20.3,44.4H469.9z M689.7,546.4l-21.5,46.8l34.7,34.8L577.4,754V605.2H618l38.2-82.8
	c0,0,51.2-6,70.5-31.2c13.1-17.1,15.6-49.2,15.6-49.2H634.7L550,260.8c0,0,14.1-11.1,14.3-30c0.1-13.3-17-27.9-32.3-27.6
	c-15.2,0.3-31.3,13.1-31.1,28.8c0.4,19.8,15.6,27.6,15.6,27.6l-86,182.4H322.9c0,0-5.7,24.6,17.9,49.2
	c27.5,28.7,69.3,32.4,69.3,32.4l39.4,81.6H489V754L362.4,626.8l35.8-36l-20.3-44.4l-80,80.4l235.4,236.4l235.4-236.4L689.7,546.4z"
	/>
<path fill="none" stroke="#003781" stroke-width="7.7975" stroke-miterlimit="10" d="M469.9,442l20.3-44.4h86l20.3,44.4H469.9z
	 M689.7,546.4l-21.5,46.8l34.7,34.8L577.4,754V605.2H618l38.2-82.8c0,0,51.2-6,70.5-31.2c13.1-17.1,15.6-49.2,15.6-49.2H634.7
	L550,260.8c0,0,14.1-11.1,14.3-30c0.1-13.3-17-27.9-32.3-27.6c-15.2,0.3-31.3,13.1-31.1,28.8c0.4,19.8,15.6,27.6,15.6,27.6
	l-86,182.4H322.9c0,0-5.7,24.6,17.9,49.2c27.5,28.7,69.3,32.4,69.3,32.4l39.4,81.6H489V754L362.4,626.8l35.8-36l-20.3-44.4l-80,80.4
	l235.4,236.4l235.4-236.4L689.7,546.4z"/>
</svg>
