<?xml version="1.0" encoding="utf-8"?>
<svg class="box" version="1.1" xmlns="http://www.w3.org/2000/svg" xmlns:xlink="http://www.w3.org/1999/xlink" x="0px" y="0px"
	 viewBox="0 0 1066.4 1066.4" enable-background="new 0 0 1066.4 1066.4" xml:space="preserve">
<style>
.box {
  filter: drop-shadow(0 0 5px #308aff9f) drop-shadow(0 0 5px #308aff9f);
}
</style>

   <path fill="#3db2e5" d="M579.4,704.5l-41.1,42.9L486,704.5c0,0-0.5-33.2-0.5-64.5c0-28,48.1-38,48.1-38c8,1.5,46.4,10,46.4,38
	C580,671.3,579.4,704.5,579.4,704.5 M678.7,598c-12.1-18-48.3-69.2-75.1-76.8c0-40.3,1.7-114.9-53.5-114.9c-20,0-33.8,0-33.8,0
	c-55.2,0-53.5,74.6-53.5,114.9c-26.9,7.5-63,58.7-75.2,76.8l-64.7-64.7l210.3-210.4l210.3,210.3L678.7,598z M533.2,823l289.8-289.8
	L533.2,243.4L243.4,533.2L533.2,823z"/>
<path fill="none" stroke="#003781" stroke-width="11.1393" d="M579.4,704.5l-41.1,42.9L486,704.5c0,0-0.5-33.2-0.5-64.5
	c0-28,48.1-38,48.1-38c8,1.5,46.4,10,46.4,38C580,671.3,579.4,704.5,579.4,704.5z M678.7,598c-12.1-18-48.3-69.2-75.1-76.8
	c0-40.3,1.7-114.9-53.5-114.9c-20,0-33.8,0-33.8,0c-55.2,0-53.5,74.6-53.5,114.9c-26.9,7.5-63,58.7-75.2,76.8l-64.7-64.7
	l210.3-210.4l210.3,210.3L678.7,598z M533.2,823l289.8-289.8L533.2,243.4L243.4,533.2L533.2,823z"/>
</svg>
