<?xml version="1.0" encoding="utf-8"?>
<svg version="1.1" xmlns="http://www.w3.org/2000/svg" xmlns:xlink="http://www.w3.org/1999/xlink" x="0px" y="0px"
	 viewBox="0 0 1066.4 1066.4" enable-background="new 0 0 1066.4 1066.4" xml:space="preserve">
<g>
	<path fill="#C6B96F" d="M855.3,743.5V323c0,0,0-111.8-111.8-111.8H323c0,0-111.8,0-111.8,111.8v420.5c0,0,0,111.8,111.8,111.8
		h420.5C743.5,855.3,855.3,855.3,855.3,743.5"/>
	<path fill="#AA8B49" d="M708.3,610.1h-67.1v-67.1h67.1V610.1z M425.2,610.1h-67.1v-67.1h67.1V610.1z M765.7,750.1V483.3
		c0,0-201.6-153.4-206.4-157.1c-7.2-5.5-13.9-9.9-27.1-9.9c-12.2,0-17.7,4.5-25,9.9c-4.9,3.7-206.4,157.1-206.4,157.1v266.8h196.2
		V622h29.8h13h29.8v128.2H765.7z"/>
</g>
</svg>