<?xml version="1.0" encoding="utf-8"?>
<svg version="1.1" xmlns="http://www.w3.org/2000/svg" xmlns:xlink="http://www.w3.org/1999/xlink" x="0px" y="0px"
	 viewBox="0 0 1066.4 1066.4" enable-background="new 0 0 1066.4 1066.4" xml:space="preserve">
<g>
	<path fill="#C6B96F" d="M855.3,743.5V323c0,0,0-111.8-111.8-111.8H323c0,0-111.8,0-111.8,111.8v420.5c0,0,0,111.8,111.8,111.8
		h420.5C743.5,855.3,855.3,855.3,855.3,743.5"/>
	<path fill="#AA8B49" d="M539,742.6H574c5.7,0,9.4-0.9,17-7.6c7.6-6.6,24.6-22.7,64.4-70.1c39.8-47.4,59.7-55.9,59.7-142.1
		c0-86.2-138.1-116.5-138.1-116.5s-5.1-4.3,6.6-28.1c11.7-23.8,66.1-42.3,73.5-42.8c7.4-0.5,6.4-5.1,6.4-7.8c0-2.8-4-3.9-4-3.9
		H546.8h-27H407c0,0-4.1,1.1-4.1,3.9c0,2.8-0.9,7.4,6.5,7.8c7.4,0.4,61.8,19,73.5,42.8c11.6,23.7,6.6,28.1,6.6,28.1
		s-138.1,30.3-138.1,116.5c0,86.2,19.9,94.7,59.7,142.1s56.8,63.5,64.4,70.1c7.6,6.6,11.4,7.6,17,7.6h35.1H539z"/>
</g>
</svg>