<?xml version="1.0" encoding="UTF-8"?>
<svg enable-background="new 0 0 1066.4 1066.4" version="1.1" viewBox="0 0 1066.4 1066.4" xml:space="preserve" xmlns="http://www.w3.org/2000/svg">

	<path d="m855.3 743.5v-420.5s0-111.8-111.8-111.8h-420.5s-111.8 0-111.8 111.8v420.5s0 111.8 111.8 111.8h420.5s111.8 0 111.8-111.8" fill="#C6B96F"/>
	
<path d="m313.61 666.74v-88.887h-36.781v-85.098l5.5771-3.4468 5.5769-3.4467 18.783 7.2075 1.8888 16.339 1.8888 16.339h18.39l1.8888-16.339 1.8888-16.339 18.783-7.2075 5.5769 3.4467 5.5771 3.4468v27.872l29.118 5.625 29.118 5.6252 1.6704 111.87 1.6705 111.87h-110.62zm133.79-33.71 1.9927-122.61h-37.27l-13.294-24.84 1.8333-35.088 1.8333-35.088h54.94l.1149 15.325.11489 15.325h42.911l-1.364-13.257-1.3659-13.257 74.467-4.1371 5.0692 3.1545 5.0692 3.1545-2.1839 24.342h42.911l.0767-15.325-.48823-13.631c25.004-2.0792 40.949-4.3723 64.173 1.4566l-3.1643 32.14-3.1645 32.14-5.5773 27.586h-43.596l1.9927 122.61 1.9925 122.61-76.131-.014-1.7796-50.574-1.7797-50.574h-30.651l-1.7797 50.574-1.7797 50.574-76.131.014 1.9927-122.61zm210.89 10.722 1.6704-111.87 30.651-3.4329 13.793-2.9984 13.793-2.9982.0958-10.611.096-10.611 4.9939-7.8703 4.9937-7.8703 19.761 7.583 1.8888 16.339 1.8889 16.339h18.39l1.8888-16.339 1.8888-16.339 18.783-7.2075 5.5769 3.4467 5.5771 3.4468v85.098h-36.781v177.77h-110.62zm-148.52-313.91v-58.807l33.716 18.861 12.26 7.5847c14.35 9.8646 15.583 14.251 32.183 19.432l13.793 4.3043v23.461l-15.325 3.8464c-19.944 6.8851-24.899 10.589-39.363 23.248l-9.678 8.4701-27.586 8.4063z" fill="#aa8b49" stroke-width="6.1301"/>
</svg>
