<?xml version="1.0" encoding="utf-8"?>
<svg version="1.1" xmlns="http://www.w3.org/2000/svg" xmlns:xlink="http://www.w3.org/1999/xlink" x="0px" y="0px"
	 viewBox="0 0 1066.4 1066.4" enable-background="new 0 0 1066.4 1066.4" xml:space="preserve">
<g>
	<path fill="#C6B96F" d="M855.3,743.5V323c0,0,0-111.8-111.8-111.8H323c0,0-111.8,0-111.8,111.8v420.5c0,0,0,111.8,111.8,111.8
		h420.5C743.5,855.3,855.3,855.3,855.3,743.5"/>
	<path fill="#AA8B49" d="M433.4,361.1c0,0-15-15.6-15-25.9c0-10.3,25.9-36.6,25.9-36.6s3.7-9.9,29.6-9.9h120.5
		c25.9,0,29.6,9.9,29.6,9.9s25.9,26.3,25.9,36.6c0,10.3-15,25.9-15,25.9L551,462.9c0,0-12.2,7.8-18.2,7.8c-6,0-15.5-7.8-15.5-7.8
		L433.4,361.1z M340.4,585c0-71.8,39.3-134.3,97.5-167.5l36.2,36.5c-44.8,24.4-84.7,76.4-84.7,131c0,79.4,64.4,143.8,143.8,143.8
		c79.4,0,143.8-64.4,143.8-143.8c0-55.3-38.2-104.2-83.9-128.2l33.8-40.2c59.1,33,99.1,96,99.1,168.5
		c0,106.5-86.3,192.8-192.8,192.8C426.7,777.8,340.4,691.5,340.4,585"/>
</g>
</svg>