<?xml version="1.0" encoding="utf-8"?>
<svg version="1.1" xmlns="http://www.w3.org/2000/svg" xmlns:xlink="http://www.w3.org/1999/xlink" x="0px" y="0px"
	 viewBox="0 0 1066.4 1066.4" enable-background="new 0 0 1066.4 1066.4" xml:space="preserve">
<g>
	<path fill="#C6B96F" d="M855.3,743.5V323c0,0,0-111.8-111.8-111.8H323c0,0-111.8,0-111.8,111.8v420.5c0,0,0,111.8,111.8,111.8
		h420.5C743.5,855.3,855.3,855.3,855.3,743.5"/>
	<path fill="#AA8B49" d="M503.5,752H383.1c-16.2,0-18.4,0.2-11.6-27.9c8.9-36.8,22.1-228.7,22.1-228.7s-26.2,3-31.4,12.3
		c-5.3,9.3-14,17.2-25.6,2.3c-11.6-14.8-37.8-49.5-55.8-61.9c-18-12.5-18.6-23.6-2.3-31.4c16.3-7.8,97.2-63.3,113-81.1
		c8.4-9.4,25.6-31.8,35.6-15.1c9.6,16,35.6,51.2,100.7,51.2s101.9-35.3,111.5-51.2c10-16.8,27.2,5.7,35.6,15.1
		c15.8,17.9,96.7,73.3,113,81.1c16.3,7.8,15.7,18.9-2.3,31.4c-18,12.5-44.2,47.1-55.8,61.9c-11.6,14.8-20.4,7-25.6-2.3
		c-5.2-9.3-31.4-12.3-31.4-12.3S686,687.2,695,724.1c6.8,28.1,4.6,27.9-11.6,27.9H562.9H503.5z"/>
	<path fill="#C6B96F" d="M534.9,494.7c16.2,0,29.3-13.1,29.3-29.3c0-16.2-13.1-29.3-29.3-29.3c-16.2,0-29.3,13.1-29.3,29.3
		C505.6,481.6,518.8,494.7,534.9,494.7"/>
	<path fill="#C6B96F" d="M534.9,597.3c16.2,0,29.3-13.1,29.3-29.3c0-16.2-13.1-29.3-29.3-29.3c-16.2,0-29.3,13.1-29.3,29.3
		C505.6,584.2,518.8,597.3,534.9,597.3"/>
</g>
</svg>