<?xml version="1.0" encoding="UTF-8"?>
<svg class="box" width="1351.7" height="1154" enable-background="new 0 0 1066.4 1066.4" version="1.1" viewBox="0 0 1351.7 1154" xml:space="preserve" xmlns="http://www.w3.org/2000/svg">
<style>
.box {
 filter: drop-shadow(0 0 2px #3f90fc) drop-shadow(0 0 2px #3f90fc) drop-shadow(0 0 2px #3f90fc7f);
}
</style>
<g transform="translate(142.62 43.807)">
	<path d="m352.7 713.4c46.3 46.7 92.6 93.4 138.9 140.1 64.6-65.1 129.1-130.2 193.7-195.2-25.2.2-50.3.4-75.5.6-38 38.3-76.1 76.6-114.1 115l-3.3 3.4-3.4-3.4c-20.2-20.4-40.4-40.7-60.6-61.1-25.2.2-50.5.5-75.7.6m-179.4-180.8 46.2 46.6c-1.3-1.4-3.3-1.8-5.1-1.1s-2.9 2.5-2.9 4.3v-7.9l-44.4-34.8c2 1.6 4.8 1.3 6.5-.6 1.5-1.9 1.5-4.7-.3-6.5m546.5-95c-74.3-74.9-148.6-149.8-222.9-224.7-58 58.5-116 117-174 175.5 25.2-.2 50.3-.4 75.5-.6 31.5-31.7 63-63.5 94.5-95.2l3.3-3.4 3.4 3.4c48.1 48.5 96.3 97.1 144.5 145.7 25.2-.3 50.4-.5 75.7-.7m63.8 121.1c5.3-7.6 10.5-15.2 15.7-22.8-22.4-.1-44.8-.2-67.2-.3-8.2 8.2-16.3 16.4-24.5 24.7 25.3-.5 50.6-1.1 76-1.6" fill="#82cfef"/>
	<path d="m352.7 713.4c46.3 46.7 92.6 93.4 138.9 140.1 64.6-65.1 129.1-130.2 193.7-195.2-25.2.2-50.3.4-75.5.6-38 38.3-76.1 76.6-114.1 115l-3.3 3.4-3.4-3.4c-20.2-20.4-40.4-40.7-60.6-61.1-25.2.2-50.5.5-75.7.6zm-179.4-180.8 46.2 46.6c-1.3-1.4-3.3-1.8-5.1-1.1s-2.9 2.5-2.9 4.3v-7.9l-44.4-34.8c2 1.6 4.8 1.3 6.5-.6 1.5-1.9 1.5-4.7-.3-6.5zm546.5-95c-74.3-74.9-148.6-149.8-222.9-224.7-58 58.5-116 117-174 175.5 25.2-.2 50.3-.4 75.5-.6 31.5-31.7 63-63.5 94.5-95.2l3.3-3.4 3.4 3.4c48.1 48.5 96.3 97.1 144.5 145.7 25.2-.3 50.4-.5 75.7-.7zm63.8 121.1c5.3-7.6 10.5-15.2 15.7-22.8-22.4-.1-44.8-.2-67.2-.3-8.2 8.2-16.3 16.4-24.5 24.7 25.3-.5 50.6-1.1 76-1.6z" fill="none" stroke="#004a88" stroke-width="9.4461"/>
	<path d="m954.4 561v58.5h-37.1c-3.6 0-5-6.2-5-6.3l.1-37.2c0-2.6-2.1-4.7-4.7-4.7h-127c-2.6 0-4.7 2.1-4.7 4.7v38.1c0 4.8-8.6 5.3-12.3 5.3h-223c-2.6 0-4.8 2.1-4.8 4.7v37.9c0 4.2-6.7 10.7-15.6 10.7h-290.8c-2.6 0-4.7 2.1-4.7 4.7v25c0 8-6.1 10.8-6.7 11.1-35.3-.1-70.6-.2-106-.4v-337.5h107.7c-1.1 0 4.9 2.8 4.9 10.8v25c0 2.6 2.1 4.7 4.7 4.7h290.9c8.9 0 15.6 6.5 15.6 10.7v37.8c0 2.6 2.1 4.7 4.8 4.7h223c3.7 0 12.3.5 12.3 5.3v38.1c0 2.6 2.1 4.7 4.7 4.7h126.9c2.6 0 4.7-2.1 4.7-4.7v-38.1c-.1.9 1.3-5.3 4.9-5.3h37.1v91.7z" fill="#82cfef"/>
	<path d="m954.4 561v58.5h-37.1c-3.6 0-5-6.2-5-6.3l.1-37.2c0-2.6-2.1-4.7-4.7-4.7h-127c-2.6 0-4.7 2.1-4.7 4.7v38.1c0 4.8-8.6 5.3-12.3 5.3h-223c-2.6 0-4.8 2.1-4.8 4.7v37.9c0 4.2-6.7 10.7-15.6 10.7h-290.8c-2.6 0-4.7 2.1-4.7 4.7v25c0 8-6.1 10.8-6.7 11.1-35.3-.1-70.6-.2-106-.4v-337.5h107.7c-1.1 0 4.9 2.8 4.9 10.8v25c0 2.6 2.1 4.7 4.7 4.7h290.9c8.9 0 15.6 6.5 15.6 10.7v37.8c0 2.6 2.1 4.7 4.8 4.7h223c3.7 0 12.3.5 12.3 5.3v38.1c0 2.6 2.1 4.7 4.7 4.7h126.9c2.6 0 4.7-2.1 4.7-4.7v-38.1c-.1.9 1.3-5.3 4.9-5.3h37.1v91.7z" fill="none" stroke="#004a88" stroke-linecap="round" stroke-linejoin="round" stroke-width="9.4461"/>
</g>
</svg>
