<?xml version="1.0" standalone="no"?>
<!DOCTYPE svg PUBLIC "-//W3C//DTD SVG 20010904//EN"
 "http://www.w3.org/TR/2001/REC-SVG-20010904/DTD/svg10.dtd">
<svg version="1.0" xmlns="http://www.w3.org/2000/svg"
 width="270.000000pt" height="270.000000pt" viewBox="0 0 270.000000 270.000000"
 preserveAspectRatio="xMidYMid meet">
<metadata>
Created by potrace 1.11, written by Peter Selinger 2001-2013
</metadata>
<g transform="translate(0.000000,270.000000) scale(0.100000,-0.100000)"
fill="#000000" stroke="none">
<path d="M843 2558 c-67 -18 -99 -119 -55 -177 40 -54 163 -51 192 5 16 29 16
94 0 124 -24 45 -78 64 -137 48z m97 -38 c52 -55 43 -121 -20 -152 -115 -55
-194 106 -82 166 42 23 71 19 102 -14z"/>
<path d="M832 2504 c-8 -8 -18 -28 -22 -45 -18 -63 70 -109 121 -63 27 24 25
75 -4 102 -27 25 -76 28 -95 6z"/>
<path d="M1747 2549 c-9 -5 -24 -23 -32 -39 -40 -77 6 -160 89 -160 23 0 47 5
52 10 19 19 55 20 82 2 157 -100 313 -240 385 -346 66 -96 187 -376 187 -432
0 -17 17 -19 22 -2 5 15 -29 127 -67 220 -30 74 -112 222 -147 265 -73 89
-205 209 -293 268 -55 37 -101 68 -102 69 -2 1 -4 20 -7 43 -2 22 -9 50 -16
62 -21 41 -111 64 -153 40z m109 -24 c53 -34 55 -114 4 -140 -58 -30 -104 -16
-132 40 -41 83 48 153 128 100z"/>
<path d="M1757 2502 c-39 -43 -5 -112 53 -112 34 0 70 30 70 59 0 10 -9 30
-21 45 -25 32 -77 36 -102 8z"/>
<path d="M659 2342 c-36 -24 -142 -117 -201 -177 -140 -142 -273 -417 -293
-604 -9 -82 -13 -89 -56 -111 -62 -32 -89 -105 -65 -177 17 -52 118 -80 183
-51 33 15 48 32 68 75 l14 33 107 -3 c82 -1 108 1 112 11 3 10 -7 13 -39 12
-24 -1 -76 -1 -116 -1 -70 1 -71 2 -82 31 -13 39 -31 57 -77 76 l-37 15 6 57
c18 161 79 324 185 488 55 85 190 224 275 282 26 18 47 39 47 47 0 19 1 19
-31 -3z m-449 -898 c13 2 50 -33 60 -58 25 -66 1 -125 -60 -150 -104 -41 -189
46 -145 149 19 43 84 79 120 65 11 -4 22 -7 25 -6z"/>
<path d="M117 1419 c-24 -14 -48 -70 -42 -100 3 -13 17 -34 32 -47 37 -31 106
-26 131 9 56 79 -39 186 -121 138z"/>
<path d="M1286 2036 c-65 -132 -88 -202 -72 -215 7 -6 15 -8 18 -6 9 10 151
13 195 5 23 -4 46 -4 52 -1 6 4 -9 53 -38 126 -60 150 -78 185 -95 185 -8 0
-35 -42 -60 -94z"/>
<path d="M1860 1943 c-45 -16 -220 -137 -220 -151 0 -11 17 -24 46 -36 25 -10
72 -38 105 -62 32 -24 61 -44 64 -44 10 0 22 44 29 99 4 29 8 57 11 60 2 4 7
37 10 74 7 71 2 77 -45 60z"/>
<path d="M805 1929 c-7 -10 -9 -318 -3 -325 2 -2 32 19 65 46 34 27 87 62 119
77 32 16 59 33 60 38 2 6 -31 35 -74 66 -114 83 -160 110 -167 98z"/>
<path d="M1318 1715 c-2 -2 -26 -5 -53 -9 -110 -13 -253 -79 -387 -179 -47
-35 -99 -69 -115 -74 -64 -23 -118 14 -111 74 5 39 -1 41 -31 10 -24 -27 -29
-76 -12 -119 14 -38 67 -68 118 -68 39 0 43 -3 69 -47 86 -148 247 -257 439
-297 l60 -13 1 -37 c1 -54 -21 -193 -51 -321 -41 -171 -27 -280 41 -334 67
-53 154 -5 182 101 13 46 8 159 -8 218 -7 25 -14 56 -16 69 -3 12 -11 51 -19
86 -8 35 -18 99 -21 142 l-6 78 82 19 c163 36 315 140 409 276 34 50 41 55 77
56 75 2 135 57 129 117 -1 12 -3 32 -4 44 -1 24 -28 56 -40 48 -5 -2 -8 -15
-7 -27 3 -38 -21 -76 -53 -83 -40 -9 -82 11 -176 82 -103 78 -236 148 -320
167 -58 14 -170 27 -177 21z m270 -149 c15 -8 78 -51 140 -95 62 -44 118 -81
125 -84 21 -7 -24 -78 -98 -153 -70 -70 -175 -133 -250 -150 -28 -6 -27 -5 13
23 49 34 86 84 97 132 10 46 -8 37 -38 -19 -28 -54 -103 -114 -164 -130 -57
-17 -128 -7 -187 24 -57 30 -89 62 -117 117 -11 22 -24 37 -29 34 -10 -6 18
-95 30 -95 5 0 11 -8 14 -17 3 -10 26 -31 51 -46 25 -16 45 -30 45 -32 0 -7
-77 18 -125 41 -76 36 -158 106 -210 178 -53 75 -52 82 17 138 102 82 233 157
305 174 23 5 20 1 -17 -23 -25 -17 -55 -41 -68 -55 -25 -28 -65 -122 -55 -132
11 -10 23 -7 23 7 0 7 9 30 21 52 77 147 244 193 374 104 50 -33 83 -71 101
-115 14 -33 34 -46 34 -21 -1 47 -62 128 -126 168 -19 11 -34 22 -34 25 0 5
92 -31 128 -50z"/>
<path d="M1274 1516 c-78 -35 -121 -109 -112 -191 15 -131 159 -204 279 -142
114 59 119 240 9 313 -49 33 -128 42 -176 20z m122 -134 c44 -57 -32 -132 -89
-89 -49 35 -11 122 49 111 15 -3 33 -13 40 -22z"/>
<path d="M1595 1350 c-10 -16 16 -43 28 -31 11 11 2 41 -12 41 -5 0 -13 -5
-16 -10z"/>
<path d="M1067 1343 c-4 -3 -7 -12 -7 -20 0 -17 26 -17 33 1 8 21 -11 35 -26
19z"/>
<path d="M2467 1461 c-19 -10 -41 -33 -54 -60 -12 -24 -25 -46 -27 -49 -3 -3
-56 -5 -117 -4 -82 1 -109 -2 -106 -11 2 -8 33 -12 93 -13 148 -2 140 0 161
-41 11 -25 32 -45 58 -59 29 -15 40 -27 41 -45 2 -59 -64 -304 -93 -341 -5 -7
-13 -20 -16 -28 -3 -8 -50 -78 -105 -155 -74 -105 -119 -157 -178 -207 -77
-66 -269 -188 -296 -188 -7 0 -21 19 -32 43 -64 145 -96 231 -89 237 4 4 33
20 63 36 30 16 67 37 81 47 20 14 31 16 51 8 29 -11 86 -5 106 12 15 12 39 57
38 72 -6 72 -86 117 -148 84 -29 -16 -49 -70 -38 -107 8 -29 6 -33 -38 -61
-26 -16 -68 -39 -94 -51 -26 -11 -50 -24 -53 -29 -6 -11 121 -312 137 -322 33
-20 257 127 379 250 197 196 343 485 351 691 1 32 6 37 50 57 35 16 52 31 62
55 24 56 1 142 -47 172 -35 22 -102 26 -140 7z m135 -28 c10 -9 24 -37 32 -62
24 -83 -14 -132 -105 -135 -42 -1 -53 3 -80 31 -78 78 -11 204 101 187 18 -2
42 -12 52 -21z m-587 -686 c17 -31 18 -38 6 -61 -25 -47 -90 -58 -126 -22 -42
42 -26 110 29 125 43 11 68 0 91 -42z"/>
<path d="M2470 1401 c-54 -54 -21 -141 54 -141 64 0 95 24 91 70 -1 8 -3 25
-3 37 -5 63 -93 84 -142 34z"/>
<path d="M1913 772 c-22 -14 -32 -57 -19 -83 24 -48 116 -27 116 26 0 42 -63
79 -97 57z"/>
<path d="M163 1068 c9 -73 59 -203 75 -195 35 18 118 53 174 74 67 23 71 24
89 7 11 -10 33 -41 50 -70 29 -51 51 -80 112 -146 30 -34 31 -32 -31 -98 -50
-51 -21 -48 35 4 26 25 51 46 55 46 4 0 39 -21 78 -46 40 -25 100 -59 135 -75
72 -33 71 -28 29 -134 -35 -89 -36 -90 -76 -89 -71 3 -118 -43 -118 -116 0
-35 5 -52 23 -68 43 -40 142 -34 179 12 24 29 22 89 -3 134 l-21 37 41 99 c23
55 38 103 34 107 -5 5 -52 31 -106 58 -114 58 -206 119 -248 164 -16 18 -57
73 -91 122 -34 50 -65 93 -71 96 -11 8 -147 -34 -210 -66 -39 -19 -50 -21 -60
-10 -12 11 -33 82 -52 168 -9 45 -28 32 -22 -15z m782 -764 c25 -27 34 -94 17
-121 -9 -14 -71 -40 -89 -37 -7 1 -19 2 -27 3 -7 0 -24 12 -38 26 -42 42 -28
124 27 145 42 18 85 11 110 -16z"/>
<path d="M824 287 c-24 -21 -26 -28 -20 -61 9 -48 56 -72 105 -55 38 13 52 36
45 75 -10 62 -80 84 -130 41z"/>
<path d="M442 547 c-14 -15 -22 -36 -22 -59 0 -90 134 -102 156 -14 7 28 -18
81 -41 90 -34 13 -72 6 -93 -17z m101 -15 c25 -29 26 -50 7 -75 -34 -43 -90
-40 -111 5 -30 66 57 124 104 70z"/>
<path d="M468 529 c-28 -16 -23 -67 7 -81 19 -9 29 -8 50 6 29 19 32 46 7 69
-21 19 -39 21 -64 6z"/>
</g>
</svg>
